PathFileType	4	(X/Y/Z)	/Users/itak/Documents/Research/Walk-IL/dataset/trc/00269_00010.trc
DataRate	CameraRate	NumFrames	NumMarkers	Units	OrigDataRate	OrigDataStartFrame	OrigNumFrames
100.000000	100.000000	4	53	mm	100.000000	0	447
Frame#	Time	RPSI			LPSI			L3			STRN			T10			C7			CLAV			RBAK			LBAK			LSHO			LUPA			LAEL			LAOL			LWTS			LWPS			LFRA			LHPS			LHTS			RSHO			RUPA			RAEL			RAOL			RWTS			RWPS			RFRA			RIFD			RHTS			RHPS			RBHD			LFHD			RFHD			LBHD			LHIP			RHIP			RASI			LKNE			LTHI			LANK			LTIP			LTOE			LMT1			LMT5			LHEE			RKNE			RTHI			RANK			RTIP			RTOE			RMT1			RMT5			RHEE			LIFD			LASI			
		X1	Y1	Z1	X2	Y2	Z2	X3	Y3	Z3	X4	Y4	Z4	X5	Y5	Z5	X6	Y6	Z6	X7	Y7	Z7	X8	Y8	Z8	X9	Y9	Z9	X10	Y10	Z10	X11	Y11	Z11	X12	Y12	Z12	X13	Y13	Z13	X14	Y14	Z14	X15	Y15	Z15	X16	Y16	Z16	X17	Y17	Z17	X18	Y18	Z18	X19	Y19	Z19	X20	Y20	Z20	X21	Y21	Z21	X22	Y22	Z22	X23	Y23	Z23	X24	Y24	Z24	X25	Y25	Z25	X26	Y26	Z26	X27	Y27	Z27	X28	Y28	Z28	X29	Y29	Z29	X30	Y30	Z30	X31	Y31	Z31	X32	Y32	Z32	X33	Y33	Z33	X34	Y34	Z34	X35	Y35	Z35	X36	Y36	Z36	X37	Y37	Z37	X38	Y38	Z38	X39	Y39	Z39	X40	Y40	Z40	X41	Y41	Z41	X42	Y42	Z42	X43	Y43	Z43	X44	Y44	Z44	X45	Y45	Z45	X46	Y46	Z46	X47	Y47	Z47	X48	Y48	Z48	X49	Y49	Z49	X50	Y50	Z50	X51	Y51	Z51	X52	Y52	Z52	X53	Y53	Z53	

1	0	885.71044921875	1000.916931152344	60.02632904052734	894.224609375	993.5098876953125	-114.2134399414062	910.2523193359375	1066.795776367188	-29.86018562316895	1155.162963867188	1248.973266601562	-23.65893745422363	895.4928588867188	1176.799682617188	-31.53925323486328	927.0694580078125	1421.614624023438	-50.00497817993164	1089.842041015625	1348.728759765625	-32.21434020996094	878.461181640625	1284.442260742188	29.4564380645752	921.12939453125	1382.934448242188	-155.7877960205078	1016.302490234375	1394.157958984375	-202.7462921142578	1001.297119140625	1274.865600585938	-276.6741333007812	1015.007263183594	1071.457763671875	-290.5081787109375	944.4235229492188	1057.91845703125	-241.3342742919922	1090.699829101562	853.984619140625	-225.8348999023438	1068.72607421875	841.6514892578125	-292.7609558105469	1032.703247070312	967.9727783203125	-294.5098266601562	1073.092529296875	753.4628295898438	-288.7941589355469	1118.4580078125	755.0252075195312	-241.0579528808594	989.6384887695312	1407.185424804688	114.8139724731445	984.2988891601562	1350.98974609375	185.2459564208984	984.993408203125	1083.984985351562	236.8320922851562	944.0847778320312	1074.054077148438	149.855224609375	1092.287109375	866.2401123046875	180.78857421875	1052.45263671875	859.4484252929688	255.4445953369141	1012.807861328125	1017.364196777344	247.6374053955078	1109.066528320312	682.6097412109375	181.6408996582031	1129.293823242188	753.1831665039062	197.5762176513672	1082.853881835938	749.7975463867188	250.5020141601562	931.4855346679688	1574.7568359375	25.07436752319336	1098.767578125	1637.133666992188	-91.06456756591797	1095.266235351562	1634.5439453125	2.155791759490967	939.200927734375	1567.885986328125	-122.7263717651367	963.916259765625	944.7897338867188	-207.3905639648438	980.922607421875	950.6182861328125	167.9120025634766	1102.93505859375	955.0449829101562	101.6102142333984	1016.250549316406	477.5330200195312	-170.3214721679688	1010.935302734375	620.7109985351562	-193.6082763671875	925.2625122070312	37.86588287353516	-152.3599243164062	960.9808349609375	255.4264831542969	-171.213134765625	1132.392578125	27.75996208190918	-89.89411163330078	1060.727783203125	20.44217300415039	-51.21666717529297	1049.48291015625	33.87456130981445	-162.5653533935547	878.9299926757812	31.36457824707031	-94.39859771728516	1015.993225097656	475.9784545898438	137.0525207519531	1044.692504882812	737.2086181640625	168.6214141845703	926.78125	37.82072448730469	118.4469833374023	1017.06494140625	351.2828979492188	125.7547912597656	1122.073486328125	32.94465637207031	61.99015426635742	1062.876708984375	29.89675521850586	24.01509475708008	1030.355590820312	26.33768081665039	137.2487030029297	873.6116333007812	35.32624816894531	69.29142761230469	1096.09912109375	666.1036987304688	-225.4873046875	nan	nan	nan	
2	0.01	885.691650390625	1000.90087890625	60.06349182128906	894.1843872070312	993.5170288085938	-114.1984710693359	910.2981567382812	1066.787109375	-29.83126449584961	1155.11767578125	1249.033203125	-23.55008316040039	895.5118408203125	1176.759033203125	-31.48137092590332	926.9279174804688	1421.634643554688	-49.88205718994141	1089.759643554688	1348.7734375	-32.07757568359375	878.4619140625	1284.41552734375	29.55760955810547	921.0374145507812	1382.975463867188	-155.6963348388672	1016.219543457031	1394.233642578125	-202.6457977294922	1001.241638183594	1274.976196289062	-276.5960388183594	1014.940795898438	1071.561645507812	-290.4434509277344	944.35595703125	1058.0283203125	-241.251220703125	1090.69482421875	854.1141967773438	-225.7902374267578	1068.764282226562	841.769287109375	-292.7438049316406	1032.698974609375	968.0921020507812	-294.4496765136719	1073.145751953125	753.6304931640625	-288.7669982910156	1118.514282226562	755.2410278320312	-241.1058502197266	989.52978515625	1407.143798828125	114.9699935913086	984.21875	1350.941650390625	185.3928680419922	984.989013671875	1083.93310546875	236.9567413330078	944.041748046875	1074.048706054688	149.9352416992188	1092.25341796875	866.2168579101562	180.8507690429688	1052.3310546875	859.4028930664062	255.4715576171875	1012.751098632812	1017.308654785156	247.7263488769531	1109.021240234375	682.579345703125	181.6618347167969	1129.251953125	753.1527709960938	197.6106109619141	1082.8369140625	749.76416015625	250.5540924072266	931.3984985351562	1574.74462890625	25.25507736206055	1098.575805664062	1637.025634765625	-90.83473205566406	1095.193481445312	1634.517456054688	2.275941610336304	939.0676879882812	1567.878540039062	-122.5520782470703	964.035888671875	944.7877807617188	-207.3408508300781	980.853271484375	950.6240234375	167.9618225097656	1102.859619140625	955.068115234375	101.6476669311523	1016.265930175781	477.532958984375	-170.3030700683594	1011.023376464844	620.7086181640625	-193.5652160644531	925.2647094726562	37.86899185180664	-152.3613586425781	960.9951171875	255.4405670166016	-171.2129821777344	1132.403076171875	27.75323486328125	-89.90389251708984	1060.728149414062	20.44602203369141	-51.21822357177734	1049.494995117188	33.87379837036133	-162.5722808837891	878.939453125	31.39153671264648	-94.39897155761719	1015.976379394531	475.9887390136719	137.0912628173828	1044.6044921875	737.2619018554688	168.7209167480469	926.783203125	37.82416152954102	118.4495849609375	1017.031494140625	351.2981872558594	125.7943344116211	1122.077392578125	32.94717407226562	62.00056076049805	1062.873779296875	29.89472389221191	24.01582336425781	1030.34765625	26.34004974365234	137.2527008056641	873.6529541015625	35.31487274169922	69.29763793945312	1096.116943359375	666.1506958007812	-225.4531402587891	nan	nan	nan	
3	0.02	885.662109375	1000.875793457031	60.11486434936523	894.1422729492188	993.523193359375	-114.1707534790039	910.3374633789062	1066.779052734375	-29.79492950439453	1155.0546875	1249.108642578125	-23.40980529785156	895.52734375	1176.7158203125	-31.40499114990234	926.7603759765625	1421.660400390625	-49.73320770263672	1089.655029296875	1348.83056640625	-31.90445899963379	878.4444580078125	1284.377563476562	29.6870288848877	920.9195556640625	1383.029052734375	-155.5712127685547	1016.122314453125	1394.339965820312	-202.5090789794922	1001.173828125	1275.124389648438	-276.4973754882812	1014.862854003906	1071.694458007812	-290.3705444335938	944.2672729492188	1058.168701171875	-241.1549682617188	1090.688354492188	854.2659912109375	-225.7349090576172	1068.803955078125	841.9155883789062	-292.7231750488281	1032.6845703125	968.2546997070312	-294.3782348632812	1073.206420898438	753.8305053710938	-288.7320251464844	1118.577880859375	755.5098876953125	-241.1613464355469	989.397216796875	1407.093872070312	115.1681060791016	984.1267700195312	1350.881958007812	185.5841064453125	984.974853515625	1083.86865234375	237.1117706298828	943.9877319335938	1074.03857421875	150.0370483398438	1092.209838867188	866.1861572265625	180.9346618652344	1052.172607421875	859.34423828125	255.5093231201172	1012.677490234375	1017.241516113281	247.8395843505859	1108.9609375	682.5398559570312	181.6948089599609	1129.200561523438	753.1138916015625	197.6640167236328	1082.818237304688	749.7225952148438	250.6271209716797	931.2770385742188	1574.72998046875	25.47850036621094	1098.348754882812	1636.904907226562	-90.55793762207031	1095.093383789062	1634.488525390625	2.431578636169434	938.9005126953125	1567.874755859375	-122.3347396850586	964.2857055664062	944.7792358398438	-207.2506408691406	980.7731323242188	950.63134765625	168.0234222412109	1102.761474609375	955.0985717773438	101.7004776000977	1016.292358398438	477.5390014648438	-170.2899475097656	1011.11669921875	620.7057495117188	-193.51611328125	925.2684326171875	37.87406158447266	-152.3645935058594	961.0169067382812	255.4535217285156	-171.2120819091797	1132.415283203125	27.74575805664062	-89.91443634033203	1060.728271484375	20.45084762573242	-51.22048568725586	1049.505004882812	33.86670684814453	-162.5792236328125	878.9529418945312	31.42168235778809	-94.39948272705078	1015.963073730469	476.0007629394531	137.1444702148438	1044.502685546875	737.3241577148438	168.8510131835938	926.7848510742188	37.82773590087891	118.4517593383789	1016.9970703125	351.31884765625	125.843994140625	1122.082885742188	32.94966125488281	62.0123291015625	1062.872192382812	29.89443016052246	24.01628684997559	1030.340209960938	26.3400936126709	137.257080078125	873.6777954101562	35.31013870239258	69.30076599121094	1096.136596679688	666.218994140625	-225.4184265136719	1102.614624023438	951.0117797851562	-152.0894165039062	
4	0.03	885.6184692382812	1000.839721679688	60.17998886108398	894.1004638671875	993.5266723632812	-114.1274871826172	910.3623657226562	1066.772705078125	-29.75111389160156	1154.973876953125	1249.196533203125	-23.24211692810059	895.5339965820312	1176.676391601562	-31.31105995178223	926.5785522460938	1421.690307617188	-49.56577301025391	1089.53173828125	1348.898559570312	-31.70117378234863	878.4007568359375	1284.329223632812	29.8411808013916	920.780517578125	1383.094604492188	-155.4125366210938	1016.016967773438	1394.476684570312	-202.3362274169922	1001.097900390625	1275.3076171875	-276.3815307617188	1014.779968261719	1071.852783203125	-290.295654296875	944.1602172851562	1058.333984375	-241.0539398193359	1090.681030273438	854.430419921875	-225.6743469238281	1068.838623046875	842.083740234375	-292.6997985839844	1032.656127929688	968.4566040039062	-294.2999572753906	1073.268188476562	754.047607421875	-288.6890563964844	1118.641235351562	755.8145141601562	-241.21630859375	989.2479858398438	1407.038940429688	115.4012069702148	984.0277709960938	1350.814086914062	185.8142700195312	984.9468383789062	1083.79541015625	237.2896881103516	943.9241333007812	1074.022094726562	150.1580200195312	1092.157104492188	866.1488037109375	181.0398406982422	1051.984008789062	859.2752685546875	255.5590057373047	1012.588256835938	1017.166809082031	247.9730072021484	1108.88671875	682.4925537109375	181.7420043945312	1129.139038085938	753.0679931640625	197.7376403808594	1082.7998046875	749.675537109375	250.7219085693359	931.1217041015625	1574.71337890625	25.73566436767578	1098.10302734375	1636.78564453125	-90.25164031982422	1094.9658203125	1634.4599609375	2.618813753128052	938.7066040039062	1567.876831054688	-122.0840682983398	964.713134765625	944.7601318359375	-207.1062469482422	980.6874389648438	950.638671875	168.0947265625	1102.645385742188	955.1359252929688	101.7707366943359	1016.334106445312	477.5536804199219	-170.2863616943359	1011.211669921875	620.7026977539062	-193.4621429443359	925.2742309570312	37.88147354125977	-152.3701782226562	961.0475463867188	255.4637756347656	-171.2106170654297	1132.42822265625	27.7377758026123	-89.92459869384766	1060.72802734375	20.45586395263672	-51.22341918945312	1049.511474609375	33.85238265991211	-162.5857238769531	878.9703979492188	31.45234870910645	-94.400390625	1015.959533691406	476.0137939453125	137.2129974365234	1044.398193359375	737.3897705078125	169.0072174072266	926.7860107421875	37.83100128173828	118.4529190063477	1016.966857910156	351.3418273925781	125.9018325805664	1122.08984375	32.95159149169922	62.02438354492188	1062.872314453125	29.89659690856934	24.01658630371094	1030.334350585938	26.33704948425293	137.2615203857422	873.68115234375	35.31411361694336	69.30011749267578	1096.15625	666.3136596679688	-225.388916015625	1102.668579101562	951.0933837890625	-152.0729827880859	
